# AST/ASF file generated using VICON BodyLanguage
# -----------------------------------------------
:version 1.10
:name VICON
:units
  mass 1.0
  length 0.45
  angle deg
:documentation
   .ast/.asf automatically generated from VICON data using
   VICON BodyBuilder and BodyLanguage model FoxedUp or BRILLIANT.MOD
:root
   order TX TY TZ RX RY RZ
   axis XYZ
   position 0 0 0  
   orientation 0 0 0 
:bonedata
  begin
     id 1 
     name lhipjoint
     direction 0.692814 -0.645514 0.321437 
     length 2.38754 
     axis 0 0 0  XYZ
  end
  begin
     id 2 
     name lfemur
     direction 0.34202 -0.939693 0  
     length 6.41921  
     axis 0 0 20  XYZ
    dof rx ry rz
    limits (-160.0 20.0)
           (-70.0 70.0)
           (-60.0 70.0)
  end
  begin
     id 3 
     name ltibia
     direction 0.34202 -0.939693 0   
     length 6.98247   
     axis 0 0 20   XYZ
    dof rx
    limits (-10.0 170.0)
  end
  begin
     id 4 
     name lfoot
     direction 0.0947186 -0.260237 0.960888   
     length 1.83034   
     axis -90 7.62852e-016 20   XYZ
    dof rx rz
    limits (-45.0 90.0)
           (-70.0 20.0)
  end
  begin
     id 5 
     name ltoes
     direction 1.53538e-011 -4.21952e-011 1   
     length 0.920499   
     axis -90 7.62852e-016 20   XYZ
    dof rx
    limits (-90.0 20.0)
  end
  begin
     id 6 
     name rhipjoint
     direction -0.631686 -0.693949 0.345555   
     length 2.2209  
     axis 0 0 0  XYZ 
  end
  begin
     id 7 
     name rfemur
     direction -0.34202 -0.939693 0   
     length 6.49542   
     axis 0 0 -20   XYZ
    dof rx ry rz
    limits (-160.0 20.0)
           (-70.0 70.0)
           (-70.0 60.0)
  end
  begin
     id 8 
     name rtibia
     direction -0.34202 -0.939693 0   
     length 7.21712   
     axis 0 0 -20   XYZ
    dof rx
    limits (-10.0 170.0)
 end
 begin
     id 9 
     name rfoot
     direction -0.0825378 -0.226771 0.970444   
     length 1.89724  
     axis -90 -7.62852e-016 -20   XYZ
    dof rx rz
    limits (-45.0 90.0)
           (-20.0 70.0)
  end
  begin
     id 10 
     name rtoes
     direction -1.53515e-011 -4.22016e-011 1   
     length 0.955868   
     axis -90 -7.62852e-016 -20   XYZ
    dof rx
    limits (-90.0 20.0)
  end
  begin
     id 11 
     name lowerback
     direction -0.0104711 0.984802 -0.173368   
     length 1.84931   
     axis 0 0 0   XYZ
    dof rx ry rz
    limits (-20.0 45.0)
           (-30.0 30.0)
           (-30.0 30.0)
  end
  begin
     id 12 
     name upperback
     direction -0.00286433 0.999996 -0.000382853   
     length 1.85768   
     axis 0 0 0   XYZ
    dof rx ry rz
    limits (-20.0 45.0)
           (-30.0 30.0)
           (-30.0 30.0)
  end
  begin
     id 13 
     name thorax
     direction 0.00167534 0.996793 0.0800069   
     length 1.92   
     axis 0 0 0   XYZ
    dof rx ry rz
    limits (-20.0 45.0)
           (-30.0 30.0)
           (-30.0 30.0)
  end
  begin
     id 14 
     name lowerneck
     direction -0.0672491 0.995415 0.068018   
     length 1.58923   
     axis 0 0 0   XYZ
    dof rx ry rz
    limits (-20.0 45.0)
           (-30.0 30.0)
           (-30.0 30.0)
  end
  begin
     id 15 
     name upperneck
     direction 0.0958019 0.982476 -0.159884   
     length 1.60189   
     axis 0 0 0   XYZ
    dof rx ry rz
    limits (-20.0 45.0)
           (-30.0 30.0)
           (-30.0 30.0)
  end
  begin
     id 16
     name head
     direction 0.032989 0.997338 -0.0650226  
     length 1.61681  
     axis 0 0 0   XYZ
    dof rx ry rz
    limits (-20.0 45.0)
           (-30.0 30.0)
           (-30.0 30.0)
  end
  begin
     id 17 
     name lclavicle
     direction 0.954279 0.298875 -0.00496069  
     length 2.99449  
     axis 0 0 0   XYZ
    dof ry rz
    limits (-20.0 10.0)
           (0.0 20.0)
  end
  begin
     id 18 
     name lhumerus
     direction 1 -4.48985e-011 -4.2057e-027   
     length 4.79185   
     axis 180 -30 -90   XYZ
    dof rx ry rz
    limits (-60.0 90.0)
           (-90.0 90.0)
           (-90.0 90.0)
  end
  begin
     id 19
     name lradius
     direction 1 -4.48945e-011 1.15441e-028   
     length 2.65553   
     axis 180 -30 -90   XYZ
    dof rx
    limits (-10.0 170.0)
  end
  begin
     id 20
     name lwrist
     direction 1 -4.4899e-011 4.8894e-028   
     length 1.32777   
     axis -2.56392e-016 90 90   XYZ
    dof ry
    limits (-180.0 0.0)
 end
  begin
     id 21 
     name lhand
     direction 1 -4.48908e-011 9.7788e-028   
     length 0.743904   
     axis -6.23971e-016 90 90   XYZ
    dof rx rz
    limits (-90.0 90.0)
           (-45.0 45.0)
  end
  begin
     id 22 
     name lfingers
     direction 1 -4.49068e-011 1.95576e-027   
     length 0.599754   
     axis -1.24794e-015 90 90   XYZ
    dof rx
    limits (0.0 90.0)
  end
  begin
     id 23
     name lthumb
     direction 0.707107 -6.34883e-011 0.707107   
     length 0.861131   
     axis -90 45 2.85299e-015   XYZ
    dof rx rz
    limits (-45.0 45.0)
           (-45.0 45.0)
  end
  begin
     id 24 
     name rclavicle
     direction -0.957921 0.286916 0.00811568   
     length 3.06817  
     axis 0 0 0   XYZ 
    dof ry rz
    limits (-10.0 20.0)
           (-20.0 0.0)
  end
  begin
     id 25 
     name rhumerus
     direction -1 -4.48971e-011 -3.07942e-027  
     length 4.77254   
     axis 180 30 90   XYZ
    dof rx ry rz
    limits (-90.0 60.0)
           (-90.0 90.0)
           (-90.0 90.0)
  end
  begin
     id 26 
     name rradius
     direction -1 -4.48957e-011 -9.6815e-028   
     length 2.75995   
     axis 180 30 90   XYZ
    dof rx
    limits (-10.0 170.0)
  end
  begin
     id 27 
     name rwrist
     direction -1 -4.48979e-011 4.8894e-028   
     length 1.37997   
     axis -2.56392e-016 -90 -90   XYZ
    dof ry
    limits (-180.0 0.0)
  end
  begin
     id 28
     name rhand
     direction -1 -4.48906e-011 9.7788e-028   
     length 0.701619   
     axis -6.23971e-016 -90 -90   XYZ
    dof rx rz
    limits (-90.0 90.0)
           (-45.0 45.0)
  end
  begin
     id 29
     name rfingers
     direction -1 -4.49018e-011 1.95576e-027   
     length 0.565663   
     axis -1.24794e-015 -90 -90   XYZ
    dof rx
    limits (0.0 90.0)
  end
  begin
     id 30
     name rthumb
     direction -0.707107 -6.34881e-011 0.707107   
     length 0.812183   
     axis -90 -45 -2.85299e-015   XYZ
    dof rx rz
    limits (-45.0 45.0)
           (-45.0 45.0)
  end
:hierarchy
  begin
    root lhipjoint rhipjoint lowerback
    lhipjoint lfemur
    lfemur ltibia
    ltibia lfoot
    lfoot ltoes
    rhipjoint rfemur
    rfemur rtibia
    rtibia rfoot
    rfoot rtoes
    lowerback upperback
    upperback thorax
    thorax lowerneck lclavicle rclavicle
    lowerneck upperneck
    upperneck head
    lclavicle lhumerus
    lhumerus lradius
    lradius lwrist
    lwrist lhand lthumb
    lhand lfingers
    rclavicle rhumerus
    rhumerus rradius
    rradius rwrist
    rwrist rhand rthumb
    rhand rfingers
  end

#!OML:ASF F:\VICON\USERDATA\INSTALL\rory3\rory3.ASF
:FULLY-SPECIFIED
:DEGREES
1098
root 0.74041 15.6466 -1.13083 7.44283 -9.48701 0.608241
lowerback 26.4452 -0.920276 -1.76884
upperback 6.55223 -1.11476 6.44911
thorax -7.16888 -0.533146 8.62516
lowerneck -14.6085 3.61865 -1.82289
upperneck -5.73359 5.10627 11.5364
head 0.314918 2.75643 4.4139
rclavicle -1.66979e-014 5.725e-014
rhumerus -13.0928 6.68328 -42.7698
rradius 142.792
rwrist -15.7872
rhand 17.9093 2.82626
rfingers 7.12502
rthumb 42.5827 -21.5655
lclavicle -1.66979e-014 5.725e-014
lhumerus 91.2102 36.8143 59.3535
lradius 25.3379
lwrist -11.6003
lhand -2.12748 26.8086
lfingers 7.12502
lthumb 23.5511 55.3867
rfemur -28.6414 16.9242 10.7662
rtibia 38.9245
rfoot -14.37 -11.2583
rtoes -20.8907
lfemur -24.5177 -2.29869 -18.2994
ltibia 38.007
lfoot -15.9064 8.27045
ltoes -14.7143
1099
root 0.745078 15.6545 -1.13673 7.76297 -9.60921 0.130411
lowerback 26.4419 -0.949952 -1.59056
upperback 6.53725 -1.09504 6.58453
thorax -7.18809 -0.525619 8.67059
lowerneck -14.6046 3.67601 -2.05405
upperneck -5.63954 5.2105 11.3668
head 0.336275 2.81409 4.40294
rclavicle -2.06736e-014 -1.27222e-014
rhumerus -12.9474 7.13906 -42.8778
rradius 142.671
rwrist -14.9542
rhand 17.3627 3.26555
rfingers 7.12502
rthumb 42.0708 -21.3007
lclavicle -2.06736e-014 -1.27222e-014
lhumerus 93.6448 36.1568 61.8463
lradius 21.7106
lwrist -12.6644
lhand 0.170419 28.717
lfingers 7.12502
lthumb 25.7536 56.9942
rfemur -28.7627 16.9445 11.1917
rtibia 38.5064
rfoot -14.1396 -11.1238
rtoes -20.4703
lfemur -24.8854 -2.49424 -17.7468
ltibia 38.14
lfoot -15.9548 8.55112
ltoes -14.3499
1100
root 0.751598 15.6644 -1.13591 8.06381 -9.70494 -0.408393
lowerback 26.3465 -1.01597 -1.20912
upperback 6.52134 -1.07069 6.72276
thorax -7.16811 -0.519678 8.59093
lowerneck -14.6352 3.68052 -2.56305
upperneck -5.33601 5.2917 11.7539
head 0.399984 2.88035 4.21541
rclavicle -2.38542e-014 -1.74931e-014
rhumerus -12.8995 7.49277 -42.8653
rradius 142.931
rwrist -14.9579
rhand 17.5265 2.85832
rfingers 7.12502
rthumb 42.2243 -21.6561
lclavicle -2.38542e-014 -1.74931e-014
lhumerus 93.7724 35.5576 62.6384
lradius 20.7508
lwrist -13.6343
lhand 2.04687 30.3306
lfingers 7.12502
lthumb 27.5494 58.3346
rfemur -28.8206 17.0013 11.6893
rtibia 38.0789
rfoot -13.8754 -11.0753
rtoes -20.2408
lfemur -25.1707 -2.71034 -17.1415
ltibia 38.2089
lfoot -15.9463 8.86053
ltoes -14.1535
1101
root 0.761584 15.6779 -1.12417 8.16135 -9.78091 -0.645145
lowerback 26.2678 -1.08036 -0.929611
upperback 6.46057 -1.07339 6.79843
thorax -7.20141 -0.522108 8.51132
lowerneck -13.9686 3.7146 -3.27764
upperneck -5.39014 5.46403 11.8305
head 0.250244 2.96038 4.34038
rclavicle 3.18055e-015 4.29375e-014
rhumerus -13.0483 7.80237 -42.848
rradius 143.314
rwrist -15.2167
rhand 17.9343 2.457
rfingers 7.12502
rthumb 42.6061 -21.9267
lclavicle 3.18055e-015 4.29375e-014
lhumerus 91.3181 35.0897 60.9248
lradius 21.9133
lwrist -13.6364
lhand 3.69911 31.3103
lfingers 7.12502
lthumb 29.1284 59.0519
rfemur -28.6345 16.908 11.922
rtibia 37.6522
rfoot -13.6471 -10.9357
rtoes -20.1543
lfemur -25.1651 -3.15995 -16.8846
ltibia 38.2216
lfoot -16.07 9.20475
ltoes -13.4804
1102
root 0.77263 15.6899 -1.11084 8.25733 -9.92022 -0.911041
lowerback 26.1586 -1.14806 -0.522708
upperback 6.39449 -1.04928 6.8661
thorax -7.23245 -0.513559 8.33657
lowerneck -13.433 3.76482 -3.73936
upperneck -5.26191 5.5903 11.6081
head 0.187344 3.01854 4.33611
rclavicle 1.35174e-014 3.49861e-014
rhumerus -13.1803 8.20316 -42.9628
rradius 143.481
rwrist -15.086
rhand 17.8495 2.88184
rfingers 7.12502
rthumb 42.5267 -21.5292
lclavicle 1.35174e-014 3.49861e-014
lhumerus 86.5723 34.7476 56.4313
lradius 24.5885
lwrist -11.3686
lhand 4.75621 31.51
lfingers 7.12502
lthumb 30.1374 59.0723
rfemur -28.4553 16.8135 12.1775
rtibia 37.2463
rfoot -13.4749 -10.726
rtoes -20.2779
lfemur -25.1081 -3.5038 -16.6169
ltibia 38.1753
lfoot -16.2139 9.5875
ltoes -13.2122
1103
root 0.784745 15.698 -1.09422 8.30463 -10.1651 -1.01771
lowerback 25.9202 -1.19915 -0.222473
upperback 6.45569 -1.05484 6.83012
thorax -7.05161 -0.527583 8.10061
lowerneck -13.3913 3.85265 -3.78138
upperneck -4.89624 5.66064 10.7404
head 0.31114 3.05442 4.49836
rclavicle 3.73715e-014 -7.79236e-014
rhumerus -13.0678 8.60562 -43.1384
rradius 143.507
rwrist -14.9696
rhand 17.5991 3.15776
rfingers 7.12502
rthumb 42.2922 -21.3336
lclavicle 3.73715e-014 -7.79236e-014
lhumerus 80.7315 34.2387 50.4199
lradius 28.2543
lwrist -7.3068
lhand 4.80143 31.381
lfingers 7.12502
lthumb 30.1806 58.9354
rfemur -28.3094 16.7325 12.2506
rtibia 36.9295
rfoot -13.4057 -10.448
rtoes -20.2291
lfemur -24.9726 -3.70447 -16.557
ltibia 38.0812
lfoot -16.351 9.9824
ltoes -13.306
1104
root 0.793911 15.7045 -1.07749 8.3069 -10.3821 -1.1087
lowerback 25.6274 -1.27495 0.0877053
upperback 6.5638 -1.10103 6.74147
thorax -6.78724 -0.563624 7.80605
lowerneck -13.5328 4.0051 -3.37979
upperneck -4.34142 5.76229 9.98011
head 0.542103 3.10392 4.1657
rclavicle -2.54444e-014 -1.74931e-014
rhumerus -12.9642 8.91032 -43.4714
rradius 143.53
rwrist -15.1421
rhand 17.5595 3.09711
rfingers 7.12502
rthumb 42.2551 -21.4069
lclavicle -2.54444e-014 -1.74931e-014
lhumerus 74.4408 33.305 43.874
lradius 32.4309
lwrist -2.32806
lhand 3.64195 31.0442
lfingers 7.12502
lthumb 29.0738 58.7952
rfemur -28.1733 16.7596 12.32
rtibia 36.7201
rfoot -13.364 -10.278
rtoes -19.9536
lfemur -24.8095 -3.83793 -16.5074
ltibia 38.0298
lfoot -16.4983 10.2506
ltoes -13.4124
1105
root 0.799585 15.7065 -1.0651 8.19641 -10.5594 -1.14932
lowerback 25.4502 -1.35498 0.310208
upperback 6.70256 -1.17333 6.65552
thorax -6.54183 -0.610399 7.58094
lowerneck -13.8103 4.112 -3.08186
upperneck -3.69408 5.81606 9.39061
head 0.823789 3.13681 3.92705
rclavicle 3.02153e-014 -6.83819e-014
rhumerus -12.842 9.1379 -43.8551
rradius 143.371
rwrist -15.4029
rhand 17.2827 3.67914
rfingers 7.12502
rthumb 41.9958 -20.9123
lclavicle 3.02153e-014 -6.83819e-014
lhumerus 68.7038 31.9739 38.4262
lradius 36.7835
lwrist 1.93404
lhand 1.99019 30.3692
lfingers 7.12502
lthumb 27.4952 58.3819
rfemur -27.9883 16.8582 12.3835
rtibia 36.6457
rfoot -13.3804 -10.2121
rtoes -19.6842
lfemur -24.5822 -3.91688 -16.4941
ltibia 38.0166
lfoot -16.5337 10.4244
ltoes -13.3785
1106
root 0.80293 15.7047 -1.05501 8.02698 -10.7397 -1.11014
lowerback 25.3833 -1.41077 0.470346
upperback 6.82835 -1.22839 6.52454
thorax -6.36902 -0.645166 7.34362
lowerneck -13.8947 4.18831 -2.97062
upperneck -3.36813 5.88154 9.09894
head 0.952133 3.17113 3.81732
rclavicle -4.05521e-014 -3.18055e-014
rhumerus -12.7248 9.02795 -44.1425
rradius 143.259
rwrist -16.4702
rhand 17.7551 4.02136
rfingers 7.12502
rthumb 42.4383 -20.4201
lclavicle -4.05521e-014 -3.18055e-014
lhumerus 64.3292 30.4854 35.1451
lradius 41.1149
lwrist 4.3582
lhand 0.824561 29.5185
lfingers 7.12502
lthumb 26.3799 57.7033
rfemur -27.8331 17.0054 12.3824
rtibia 36.6966
rfoot -13.4029 -10.2306
rtoes -19.6316
lfemur -24.3438 -3.89593 -16.5627
ltibia 38.0367
lfoot -16.4729 10.4763
ltoes -13.4247
